HIERARCHY
ROOT Hips
{
  OFFSET 56.5127 96.8232 -1.43592
  CHANNELS 6 Xposition Yposition Zposition Zrotation Xrotation Yrotation
  JOINT spine
  {
    OFFSET 0 7.96568 0.458067
    CHANNELS 3 Zrotation Xrotation Yrotation
    JOINT spine1
    {
      OFFSET 0 10.2431 0
      CHANNELS 3 Zrotation Xrotation Yrotation
      JOINT spine2
      {
        OFFSET 0 9.81475 0
        CHANNELS 3 Zrotation Xrotation Yrotation
        JOINT Neck
        {
          OFFSET 0 25.1986 1.20138
          CHANNELS 3 Zrotation Xrotation Yrotation
          JOINT Head
          {
            OFFSET 0 7.61315 0
            CHANNELS 3 Zrotation Xrotation Yrotation
            End Site
            {
              OFFSET 0 18.4281 -6.07733
            }
          }
        }
        JOINT RightShoulder
        {
          OFFSET -4.1327 10.5992 -0.575451
          CHANNELS 3 Zrotation Xrotation Yrotation
          JOINT RightArm
          {
            OFFSET 0 13.9018 0
            CHANNELS 3 Zrotation Xrotation Yrotation
            JOINT RightArmRoll
            {
              OFFSET 0 7.01789 0
              CHANNELS 3 Zrotation Xrotation Yrotation
              JOINT RightForeArm
              {
                OFFSET 0 20.4406 0
                CHANNELS 3 Zrotation Xrotation Yrotation
                JOINT RightForeArmRoll
                {
                  OFFSET 0 7.87515 0
                  CHANNELS 3 Zrotation Xrotation Yrotation
                  JOINT RightHand
                  {
                    OFFSET 0 15.8037 0
                    CHANNELS 3 Zrotation Xrotation Yrotation
                    End Site
                    {
                      OFFSET 0 0 0
                    }
                  }
                }
              }
            }
          }
        }
        JOINT LeftShoulder
        {
          OFFSET 4.1327 10.5992 -0.575451
          CHANNELS 3 Zrotation Xrotation Yrotation
          JOINT LeftArm
          {
            OFFSET 0 13.9018 0
            CHANNELS 3 Zrotation Xrotation Yrotation
            JOINT LeftArmRoll
            {
              OFFSET 0 7.01789 0
              CHANNELS 3 Zrotation Xrotation Yrotation
              JOINT LeftForeArm
              {
                OFFSET 0 20.4406 0
                CHANNELS 3 Zrotation Xrotation Yrotation
                JOINT LeftForeArmRoll
                {
                  OFFSET 0 7.87515 0
                  CHANNELS 3 Zrotation Xrotation Yrotation
                  JOINT LeftHand
                  {
                    OFFSET 0 15.8037 0
                    CHANNELS 3 Zrotation Xrotation Yrotation
                    End Site
                    {
                      OFFSET 0 0 0
                    }
                  }
                }
              }
            }
          }
        }
      }
    }
  }
  JOINT RightUpLeg
  {
    OFFSET -7.06048 -1.2947 -1.0861
    CHANNELS 3 Zrotation Xrotation Yrotation
    JOINT RightUpLegRoll
    {
      OFFSET 0 18.5308 0
      CHANNELS 3 Zrotation Xrotation Yrotation
      JOINT RightLeg
      {
        OFFSET 0 -22.9476 0
        CHANNELS 3 Zrotation Xrotation Yrotation
        JOINT RightLegRoll
        {
          OFFSET 0 23.0226 0
          CHANNELS 3 Zrotation Xrotation Yrotation
          JOINT RightFoot
          {
            OFFSET 0 19.1625 0
            CHANNELS 3 Zrotation Xrotation Yrotation
            JOINT RightToeBase
            {
              OFFSET 0 16.0188 0
              CHANNELS 3 Zrotation Xrotation Yrotation
              End Site
              {
                OFFSET 0.00678979 7.75781 -0.894207
              }
            }
          }
        }
      }
    }
  }
  JOINT LeftUpLeg
  {
    OFFSET 7.06048 -1.2947 -1.0861
    CHANNELS 3 Zrotation Xrotation Yrotation
    JOINT LeftUpLegRoll
    {
      OFFSET 0 18.5309 0
      CHANNELS 3 Zrotation Xrotation Yrotation
      JOINT LeftLeg
      {
        OFFSET 0 22.9475 0
        CHANNELS 3 Zrotation Xrotation Yrotation
        JOINT LeftLegRoll
        {
          OFFSET 0 23.2355 0
          CHANNELS 3 Zrotation Xrotation Yrotation
          JOINT LeftFoot
          {
            OFFSET 0 18.9496 0
            CHANNELS 3 Zrotation Xrotation Yrotation
            JOINT LeftToeBase
            {
              OFFSET 0 16.0188 0
              CHANNELS 3 Zrotation Xrotation Yrotation
              End Site
              {
                OFFSET -0.0304289 7.75782 -0.894206
              }
            }
          }
        }
      }
    }
  }
}
MOTION
Frames: 5
Frame Time: 0.00208333
55.8383 96.7261 -1.73274 1.3727 -5.51883 5.4593 -0.0788221 -0.165964 -0.259647 -0.173497 3.67658 -0.489905 -0.167664 5.32163 -0.487393 -11.7468 9.15072 -1.14382 12.6791 3.14223 -3.00248 67.1712 -3.94663 -3.06525 107.861 16.2284 -0.157921 2.69013e-006 2.5673e-006 1.18664e-007 11.6411 20.4569 -3.12715 7.11627e-006 9.58057e-007 -2.99999 8.02889 -4.95154 0.697722 -64.5322 -3.24762 2.48986 -109.566 21.5215 5.8871 -2.74323e-014 -3.18055e-015 -8.74653e-015 -13.2353 10.2702 1.79365 7.38562e-006 -5.9627e-006 2.99999 -8.02889 -4.95142 -0.697667 177.449 -3.43063 3.85133 180 7.01527e-015 178.84 176.916 5.99552 179.793 1.83986e-006 -6.62697e-007 0.06869 -18.5876 67.8706 19.4337 8.13649 25.2327 -3.48773 -177.753 -2.59245 0.37705 4.54188e-006 -4.6773e-006 -1.16038 -1.45989 -7.34314 0.105864 -1.84517e-006 -2.56875e-006 -0.10389 18.8797 68.236 -19.7312 -8.13649 25.2327 3.48774 
55.8389 96.7237 -1.73942 1.37327 -5.51201 5.45461 -0.078822 -0.16715 -0.260243 -0.172507 3.67382 -0.492481 -0.166655 5.31888 -0.489995 -11.7468 9.13886 -1.14416 12.6748 3.11983 -2.99923 67.1889 -3.94674 -3.06656 107.855 16.2324 -0.0813836 2.69013e-006 2.5673e-006 1.18664e-007 11.5933 20.3639 -3.1077 7.11627e-006 9.58057e-007 -2.99999 8.02889 -4.95154 0.697722 -64.5247 -3.24003 2.48502 -109.576 21.5304 5.83133 -1.44119e-014 -6.36111e-015 -3.97569e-015 -13.185 10.187 1.78025 7.38562e-006 -5.9627e-006 2.99999 -8.02889 -4.95142 -0.697667 177.449 -3.43496 3.85098 180 7.01527e-015 178.84 176.915 5.97373 179.793 1.83986e-006 -6.62697e-007 0.0683808 -18.5797 67.8609 19.4255 8.13649 25.2327 -3.48773 -177.753 -2.5802 0.373003 4.54188e-006 -4.6773e-006 -1.16038 -1.46432 -7.35641 0.10557 -1.84517e-006 -2.56875e-006 -0.104091 18.8828 68.2399 -19.7346 -8.13649 25.2327 3.48774 
55.8391 96.7235 -1.73937 1.3739 -5.50522 5.45015 -0.078822 -0.16829 -0.260839 -0.171473 3.67115 -0.495107 -0.165602 5.3162 -0.49265 -11.7472 9.12777 -1.14446 12.6706 3.096 -2.99593 67.2055 -3.94687 -3.0678 107.85 16.2371 -0.00617572 2.69013e-006 2.5673e-006 1.18664e-007 11.546 20.2688 -3.08806 7.11627e-006 9.58057e-007 -2.99999 8.02889 -4.95154 0.697722 -64.5172 -3.23206 2.47999 -109.586 21.5403 5.77616 -4.96962e-015 -9.54166e-015 -1.59028e-015 -13.1353 10.1013 1.76651 7.38562e-006 -5.9627e-006 2.99999 -8.02889 -4.95142 -0.697667 177.45 -3.44219 3.85137 180 7.01527e-015 178.84 176.912 5.94643 179.793 1.83986e-006 -6.62697e-007 0.0679209 -18.5695 67.8484 19.415 8.13649 25.2327 -3.48773 -177.752 -2.56646 0.369112 4.54188e-006 -4.6773e-006 -1.16038 -1.46859 -7.37253 0.105326 -1.84517e-006 -2.56875e-006 -0.10439 18.887 68.2452 -19.7392 -8.13649 25.2327 3.48774 
55.833 96.725 -1.733 1.37458 -5.49844 5.44583 -0.0788219 -0.169398 -0.261436 -0.170409 3.66852 -0.49777 -0.164519 5.31358 -0.495342 -11.7479 9.11722 -1.14473 12.6666 3.07118 -2.99258 67.2213 -3.94702 -3.069 107.846 16.2424 0.0681032 2.69013e-006 2.5673e-006 1.18664e-007 11.4991 20.1722 -3.06829 7.11627e-006 9.58057e-007 -2.99999 8.02889 -4.95154 0.697722 -64.5099 -3.22385 2.47482 -109.596 21.5509 5.7214 9.64106e-015 -9.54166e-015 1.98785e-015 -13.0859 10.0139 1.75252 7.38562e-006 -5.9627e-006 2.99999 -8.02889 -4.95142 -0.697667 177.45 -3.45144 3.85229 180 7.01527e-015 178.84 176.907 5.91529 179.792 1.83986e-006 -6.62697e-007 0.0673554 -18.5579 67.834 19.4029 8.13649 25.2327 -3.48773 -177.752 -2.55167 0.365328 4.54188e-006 -4.6773e-006 -1.16038 -1.47273 -7.39064 0.10512 -1.84517e-006 -2.56875e-006 -0.104758 18.8919 68.2514 -19.7445 -8.13649 25.2327 3.48774 
55.8385 96.7258 -1.73754 1.37529 -5.49168 5.44161 -0.078822 -0.170488 -0.262033 -0.169327 3.66593 -0.500454 -0.163418 5.31098 -0.498055 -11.7488 9.10697 -1.14498 12.6626 3.04579 -2.98921 67.2367 -3.94719 -3.07017 107.843 16.248 0.141853 2.69013e-006 2.5673e-006 1.18664e-007 11.4524 20.0748 -3.04846 7.11627e-006 9.58057e-007 -2.99999 8.02889 -4.95154 0.697722 -64.5025 -3.21548 2.46957 -109.606 21.562 5.66688 3.47873e-015 -6.36111e-015 1.19271e-015 -13.0367 9.92536 1.7384 7.38562e-006 -5.9627e-006 2.99999 -8.02889 -4.95142 -0.697667 177.45 -3.46184 3.8535 180 7.01527e-015 178.84 176.903 5.88193 179.792 1.83986e-006 -6.62697e-007 0.0667296 -18.5453 67.8185 19.3899 8.13649 25.2327 -3.48773 -177.752 -2.53628 0.361607 4.54188e-006 -4.6773e-006 -1.16038 -1.47681 -7.40989 0.104933 -1.84517e-006 -2.56875e-006 -0.105166 18.8972 68.2581 -19.7503 -8.13649 25.2327 3.48774 
